<svg xmlns="http://www.w3.org/2000/svg" xmlns:xlink="http://www.w3.org/1999/xlink" width="100%" height="100%" version="1.1" viewBox="0 0 692 175" xml:space="preserve" style="fill-rule:evenodd;clip-rule:evenodd;stroke-linejoin:round;stroke-miterlimit:2"><g><g><g><g><text x="389.865" y="531.735" style="font-family:'TwCenMT-CondensedExtraBold','Tw Cen MT Condensed Extra Bold',sans-serif;font-size:200px;fill:#6ddbac" transform="matrix(1,0,0,1,-1.5001,-27.09179) matrix(0.655719,0,0,0.555798,813.113146,-86.650508) matrix(1,0,-0.180166,1,54.176216,-8.751379) matrix(1.525043,0,0,1.799213,-1806.409568,-495.739627)">V</text><text x="500.216" y="531.735" style="font-family:'TwCenMT-CondensedExtraBold','Tw Cen MT Condensed Extra Bold',sans-serif;font-size:200px;fill:#212121" transform="matrix(1,0,0,1,-1.5001,-27.09179) matrix(0.655719,0,0,0.555798,813.113146,-86.650508) matrix(1,0,-0.180166,1,54.176216,-8.751379) matrix(1.525043,0,0,1.799213,-1806.409568,-495.739627)">T<tspan x="575.802 644.65" y="531.735 531.735">ra</tspan>ding</text></g><g><path d="M188.027,446.692L183.001,466.282L168.222,456.012L178.966,440.439L188.027,446.692Z" style="fill:#6ddbac" transform="matrix(1,0,0,1,-1.5001,-27.09179) matrix(0.655719,0,0,0.555798,813.113146,-86.650508) matrix(1,0,-0.180166,1,54.176216,-8.751379) matrix(1.525043,0,0,1.799213,-1392.794434,-552.811812)"/></g><g><path d="M215.691,466.099L228.743,475.222L217.896,490.713C217.896,490.713 212.522,486.929 209.954,485.126" style="fill:#6ddbac" transform="matrix(1,0,0,1,-1.5001,-27.09179) matrix(0.655719,0,0,0.555798,813.113146,-86.650508) matrix(1,0,-0.180166,1,54.176216,-8.751379) matrix(1.525043,0,0,1.799213,-1387.098791,-549.848974)"/></g></g></g></g></svg>