<?xml version="1.0" encoding="UTF-8" standalone="no"?>
<!DOCTYPE svg PUBLIC "-//W3C//DTD SVG 1.1//EN" "http://www.w3.org/Graphics/SVG/1.1/DTD/svg11.dtd">
<svg width="100%" height="100%" viewBox="0 0 692 175" version="1.1" xmlns="http://www.w3.org/2000/svg" xmlns:xlink="http://www.w3.org/1999/xlink" xml:space="preserve" xmlns:serif="http://www.serif.com/" style="fill-rule:evenodd;clip-rule:evenodd;stroke-linejoin:round;stroke-miterlimit:2;">
    <g transform="matrix(1,0,0,1,-1.5001,-27.09179)">
        <g transform="matrix(0.655719,0,0,0.555798,813.113146,-86.650508)">
            <g transform="matrix(1,0,-0.180166,1,54.176216,-8.751379)">
                <g transform="matrix(1.525043,0,0,1.799213,-1806.409568,-495.739627)">
                    <text x="389.865px" y="531.735px" style="font-family:'TwCenMT-CondensedExtraBold', 'Tw Cen MT Condensed Extra Bold', sans-serif;font-size:200px;fill:rgb(109,219,172);">V</text>
                    <g transform="matrix(200,0,0,200,1074.923366,531.735284)">
                    </g>
                    <text x="500.216px" y="531.735px" style="font-family:'TwCenMT-CondensedExtraBold', 'Tw Cen MT Condensed Extra Bold', sans-serif;font-size:200px;fill:rgb(33,33,33);">T<tspan x="575.802px 644.65px " y="531.735px 531.735px ">ra</tspan>ding</text>
                </g>
                <g transform="matrix(1.525043,0,0,1.799213,-1392.794434,-552.811812)">
                    <path d="M188.027,446.692L183.001,466.282L168.222,456.012L178.966,440.439L188.027,446.692Z" style="fill:rgb(109,219,172);"/>
                </g>
                <g transform="matrix(1.525043,0,0,1.799213,-1387.098791,-549.848974)">
                    <path d="M215.691,466.099L228.743,475.222L217.896,490.713C217.896,490.713 212.522,486.929 209.954,485.126" style="fill:rgb(109,219,172);"/>
                </g>
            </g>
        </g>
    </g>
</svg>
